<?xml version="1.0" standalone="no"?><!DOCTYPE svg PUBLIC "-//W3C//DTD SVG 1.1//EN" "http://www.w3.org/Graphics/SVG/1.1/DTD/svg11.dtd"><svg t="1650092927787" class="icon" viewBox="0 0 1024 1024" version="1.1" xmlns="http://www.w3.org/2000/svg" p-id="7376" xmlns:xlink="http://www.w3.org/1999/xlink" width="200" height="200"><defs><style type="text/css">@font-face { font-family: feedback-iconfont; src: url("//at.alicdn.com/t/font_1031158_u69w8yhxdu.woff2?t=1630033759944") format("woff2"), url("//at.alicdn.com/t/font_1031158_u69w8yhxdu.woff?t=1630033759944") format("woff"), url("//at.alicdn.com/t/font_1031158_u69w8yhxdu.ttf?t=1630033759944") format("truetype"); }
</style></defs><path d="M128 43.2c-72 0-128 56-128 128s56 128 128 128 128-56 128-128-56-128-128-128z m0 169.6c-25.6 0-43.2-17.6-43.2-43.2S102.4 128 128 128s43.2 17.6 43.2 43.2-17.6 41.6-43.2 41.6zM128 384c-72 0-128 56-128 128s56 128 128 128 128-56 128-128-56-128-128-128z m0 171.2c-25.6 0-43.2-17.6-43.2-43.2s17.6-43.2 43.2-43.2 43.2 17.6 43.2 43.2-17.6 43.2-43.2 43.2zM128 724.8c-72 0-128 56-128 128s56 128 128 128 128-56 128-128-56-128-128-128zM128 896c-25.6 0-43.2-17.6-43.2-43.2s17.6-43.2 43.2-43.2 43.2 17.6 43.2 43.2S153.6 896 128 896zM384 212.8h596.8c25.6 0 43.2-17.6 43.2-43.2S1006.4 128 980.8 128H384c-25.6 0-43.2 17.6-43.2 43.2s17.6 41.6 43.2 41.6zM980.8 468.8H384c-25.6 0-43.2 17.6-43.2 43.2s17.6 43.2 43.2 43.2h596.8c25.6 0 43.2-17.6 43.2-43.2s-17.6-43.2-43.2-43.2zM980.8 811.2H384c-25.6 0-43.2 17.6-43.2 43.2s17.6 43.2 43.2 43.2h596.8c25.6 0 43.2-17.6 43.2-43.2 0-27.2-17.6-43.2-43.2-43.2z" p-id="7377"></path></svg>